<mxfile host="app.diagrams.net" modified="2020-11-29T08:03:58.961Z" agent="5.0 (Windows NT 10.0; Win64; x64) AppleWebKit/537.36 (KHTML, like Gecko) Chrome/86.0.4240.198 Safari/537.36" etag="50zBsGm2Wb6iPgWS0oWQ" version="13.10.4" type="github">
  <diagram id="h1go9skNZxWVvWuTAxgh" name="Page-1">
    <mxGraphModel dx="3390" dy="900" grid="1" gridSize="10" guides="1" tooltips="1" connect="1" arrows="1" fold="1" page="1" pageScale="1" pageWidth="827" pageHeight="1169" background="#F1FAEE" math="0" shadow="0">
      <root>
        <mxCell id="0" />
        <mxCell id="1" parent="0" />
        <mxCell id="0IOBR0UWIJ8B12urthg3-31" value="" style="whiteSpace=wrap;html=1;rounded=1;sketch=0;strokeColor=#36393d;fillColor=#cce5ff;dashed=1;shadow=0;glass=0;" vertex="1" parent="1">
          <mxGeometry x="-1340" y="140" width="410" height="280" as="geometry" />
        </mxCell>
        <mxCell id="0IOBR0UWIJ8B12urthg3-5" value="" style="html=1;shadow=0;dashed=0;align=center;verticalAlign=middle;shape=mxgraph.arrows2.arrow;dy=0.67;dx=20;notch=0;rounded=0;sketch=0;strokeColor=#457B9D;fillColor=#A8DADC;fontColor=#1D3557;" vertex="1" parent="1">
          <mxGeometry x="-1654" y="265" width="80" height="20" as="geometry" />
        </mxCell>
        <mxCell id="0IOBR0UWIJ8B12urthg3-24" style="edgeStyle=orthogonalEdgeStyle;curved=0;rounded=1;sketch=0;orthogonalLoop=1;jettySize=auto;html=1;exitX=1;exitY=0.75;exitDx=0;exitDy=0;entryX=0;entryY=0.5;entryDx=0;entryDy=0;strokeColor=#457B9D;fillColor=#A8DADC;fontColor=#1D3557;" edge="1" parent="1" source="0IOBR0UWIJ8B12urthg3-6" target="0IOBR0UWIJ8B12urthg3-22">
          <mxGeometry relative="1" as="geometry" />
        </mxCell>
        <mxCell id="0IOBR0UWIJ8B12urthg3-25" style="edgeStyle=orthogonalEdgeStyle;curved=0;rounded=1;sketch=0;orthogonalLoop=1;jettySize=auto;html=1;exitX=1;exitY=0.25;exitDx=0;exitDy=0;entryX=0;entryY=0.5;entryDx=0;entryDy=0;strokeColor=#457B9D;fillColor=#A8DADC;fontColor=#1D3557;" edge="1" parent="1" source="0IOBR0UWIJ8B12urthg3-6" target="0IOBR0UWIJ8B12urthg3-21">
          <mxGeometry relative="1" as="geometry" />
        </mxCell>
        <mxCell id="0IOBR0UWIJ8B12urthg3-26" style="edgeStyle=orthogonalEdgeStyle;curved=0;rounded=1;sketch=0;orthogonalLoop=1;jettySize=auto;html=1;exitX=1;exitY=0.5;exitDx=0;exitDy=0;entryX=0;entryY=0.5;entryDx=0;entryDy=0;strokeColor=#457B9D;fillColor=#A8DADC;fontColor=#1D3557;" edge="1" parent="1" source="0IOBR0UWIJ8B12urthg3-6" target="0IOBR0UWIJ8B12urthg3-19">
          <mxGeometry relative="1" as="geometry" />
        </mxCell>
        <mxCell id="0IOBR0UWIJ8B12urthg3-6" value="&lt;h4&gt;&lt;font style=&quot;font-size: 18px&quot; face=&quot;Verdana&quot;&gt;数据接入&lt;/font&gt;&lt;/h4&gt;" style="rounded=1;whiteSpace=wrap;html=1;sketch=0;strokeColor=#457B9D;fillColor=#A8DADC;fontColor=#1D3557;" vertex="1" parent="1">
          <mxGeometry x="-1574" y="245" width="120" height="60" as="geometry" />
        </mxCell>
        <mxCell id="0IOBR0UWIJ8B12urthg3-7" value="" style="shape=curlyBracket;whiteSpace=wrap;html=1;rounded=1;sketch=0;strokeColor=#b46504;fillColor=#fad7ac;size=0.5;" vertex="1" parent="1">
          <mxGeometry x="-1574" y="126" width="20" height="90" as="geometry" />
        </mxCell>
        <mxCell id="0IOBR0UWIJ8B12urthg3-13" value="&lt;h4&gt;图片&lt;/h4&gt;" style="rounded=0;whiteSpace=wrap;html=1;sketch=0;strokeColor=#b46504;fillColor=#fad7ac;" vertex="1" parent="1">
          <mxGeometry x="-1554" y="110" width="90" height="30" as="geometry" />
        </mxCell>
        <mxCell id="0IOBR0UWIJ8B12urthg3-14" value="&lt;h4&gt;视频&lt;/h4&gt;" style="rounded=0;whiteSpace=wrap;html=1;sketch=0;strokeColor=#b46504;fillColor=#fad7ac;" vertex="1" parent="1">
          <mxGeometry x="-1554" y="156" width="90" height="30" as="geometry" />
        </mxCell>
        <mxCell id="0IOBR0UWIJ8B12urthg3-15" value="&lt;h4&gt;直播&lt;/h4&gt;" style="rounded=0;whiteSpace=wrap;html=1;sketch=0;strokeColor=#b46504;fillColor=#fad7ac;" vertex="1" parent="1">
          <mxGeometry x="-1554" y="203" width="90" height="30" as="geometry" />
        </mxCell>
        <mxCell id="0IOBR0UWIJ8B12urthg3-18" value="&lt;h3&gt;&lt;font style=&quot;font-size: 16px&quot;&gt;数据类型&lt;/font&gt;&lt;/h3&gt;" style="text;html=1;strokeColor=#b46504;fillColor=#fad7ac;align=center;verticalAlign=middle;whiteSpace=wrap;rounded=0;sketch=0;" vertex="1" parent="1">
          <mxGeometry x="-1649" y="161" width="70" height="20" as="geometry" />
        </mxCell>
        <mxCell id="0IOBR0UWIJ8B12urthg3-30" style="edgeStyle=orthogonalEdgeStyle;curved=0;rounded=1;sketch=0;orthogonalLoop=1;jettySize=auto;html=1;exitX=1;exitY=0.5;exitDx=0;exitDy=0;entryX=0;entryY=0.5;entryDx=0;entryDy=0;strokeColor=#36393d;fillColor=#cdeb8b;fontColor=#1D3557;" edge="1" parent="1" source="0IOBR0UWIJ8B12urthg3-19" target="0IOBR0UWIJ8B12urthg3-27">
          <mxGeometry relative="1" as="geometry" />
        </mxCell>
        <mxCell id="0IOBR0UWIJ8B12urthg3-19" value="&lt;h3 style=&quot;font-size: 18px&quot;&gt;视频抽帧&lt;/h3&gt;" style="rounded=1;whiteSpace=wrap;html=1;sketch=0;strokeColor=#36393d;fillColor=#cdeb8b;" vertex="1" parent="1">
          <mxGeometry x="-1320" y="245" width="120" height="60" as="geometry" />
        </mxCell>
        <mxCell id="0IOBR0UWIJ8B12urthg3-28" style="edgeStyle=orthogonalEdgeStyle;curved=0;rounded=1;sketch=0;orthogonalLoop=1;jettySize=auto;html=1;exitX=1;exitY=0.5;exitDx=0;exitDy=0;entryX=0;entryY=0.25;entryDx=0;entryDy=0;strokeColor=#36393d;fillColor=#cdeb8b;fontColor=#1D3557;" edge="1" parent="1" source="0IOBR0UWIJ8B12urthg3-21" target="0IOBR0UWIJ8B12urthg3-27">
          <mxGeometry relative="1" as="geometry" />
        </mxCell>
        <mxCell id="0IOBR0UWIJ8B12urthg3-21" value="&lt;h3 style=&quot;font-size: 18px&quot;&gt;直播抽帧&lt;/h3&gt;" style="rounded=1;whiteSpace=wrap;html=1;sketch=0;strokeColor=#36393d;fillColor=#cdeb8b;" vertex="1" parent="1">
          <mxGeometry x="-1320" y="156" width="120" height="60" as="geometry" />
        </mxCell>
        <mxCell id="0IOBR0UWIJ8B12urthg3-29" style="edgeStyle=orthogonalEdgeStyle;curved=0;rounded=1;sketch=0;orthogonalLoop=1;jettySize=auto;html=1;exitX=1;exitY=0.5;exitDx=0;exitDy=0;entryX=0;entryY=0.75;entryDx=0;entryDy=0;strokeColor=#36393d;fillColor=#cdeb8b;fontColor=#1D3557;" edge="1" parent="1" source="0IOBR0UWIJ8B12urthg3-22" target="0IOBR0UWIJ8B12urthg3-27">
          <mxGeometry relative="1" as="geometry" />
        </mxCell>
        <mxCell id="0IOBR0UWIJ8B12urthg3-22" value="&lt;h3 style=&quot;font-size: 18px&quot;&gt;图片下载&lt;/h3&gt;" style="rounded=1;whiteSpace=wrap;html=1;sketch=0;strokeColor=#36393d;fillColor=#cdeb8b;" vertex="1" parent="1">
          <mxGeometry x="-1320" y="340" width="120" height="60" as="geometry" />
        </mxCell>
        <mxCell id="0IOBR0UWIJ8B12urthg3-43" style="edgeStyle=orthogonalEdgeStyle;curved=0;rounded=1;sketch=0;orthogonalLoop=1;jettySize=auto;html=1;strokeColor=#457B9D;fillColor=#A8DADC;fontColor=#1D3557;" edge="1" parent="1">
          <mxGeometry relative="1" as="geometry">
            <mxPoint x="-800" y="275" as="targetPoint" />
            <mxPoint x="-910" y="275" as="sourcePoint" />
          </mxGeometry>
        </mxCell>
        <mxCell id="0IOBR0UWIJ8B12urthg3-27" value="&lt;h3 style=&quot;font-size: 18px&quot;&gt;图片分发&lt;/h3&gt;" style="rounded=1;whiteSpace=wrap;html=1;sketch=0;strokeColor=#36393d;fillColor=#cdeb8b;" vertex="1" parent="1">
          <mxGeometry x="-1070" y="245" width="120" height="60" as="geometry" />
        </mxCell>
        <mxCell id="0IOBR0UWIJ8B12urthg3-34" value="&lt;font color=&quot;#0000ff&quot;&gt;数据预处理&lt;/font&gt;" style="text;html=1;strokeColor=none;fillColor=none;align=center;verticalAlign=middle;whiteSpace=wrap;rounded=0;shadow=0;glass=0;dashed=1;sketch=0;fontColor=#1D3557;" vertex="1" parent="1">
          <mxGeometry x="-1045" y="156" width="70" height="20" as="geometry" />
        </mxCell>
        <mxCell id="0IOBR0UWIJ8B12urthg3-39" value="&lt;h3&gt;&lt;font style=&quot;font-size: 18px&quot; face=&quot;Verdana&quot;&gt;数据队列&lt;/font&gt;&lt;/h3&gt;" style="swimlane;html=1;childLayout=stackLayout;resizeParent=1;resizeParentMax=0;startSize=20;rounded=1;shadow=0;glass=0;dashed=1;sketch=0;strokeColor=#457B9D;fillColor=#A8DADC;fontColor=#1D3557;" vertex="1" parent="1">
          <mxGeometry x="-800" y="140" width="120" height="280" as="geometry" />
        </mxCell>
        <mxCell id="0IOBR0UWIJ8B12urthg3-40" value="Lane 1" style="swimlane;html=1;startSize=20;" vertex="1" parent="0IOBR0UWIJ8B12urthg3-39">
          <mxGeometry y="20" width="40" height="260" as="geometry" />
        </mxCell>
        <mxCell id="0IOBR0UWIJ8B12urthg3-44" value="face-input" style="text;html=1;align=center;verticalAlign=middle;resizable=0;points=[];autosize=1;fontColor=#1D3557;horizontal=0;" vertex="1" parent="0IOBR0UWIJ8B12urthg3-40">
          <mxGeometry x="5" y="85" width="30" height="60" as="geometry" />
        </mxCell>
        <mxCell id="0IOBR0UWIJ8B12urthg3-41" value="Lane 2" style="swimlane;html=1;startSize=20;" vertex="1" parent="0IOBR0UWIJ8B12urthg3-39">
          <mxGeometry x="40" y="20" width="40" height="260" as="geometry" />
        </mxCell>
        <mxCell id="0IOBR0UWIJ8B12urthg3-45" value="porn-input" style="text;html=1;align=center;verticalAlign=middle;resizable=0;points=[];autosize=1;fontColor=#1D3557;horizontal=0;" vertex="1" parent="0IOBR0UWIJ8B12urthg3-41">
          <mxGeometry x="5" y="85" width="30" height="60" as="geometry" />
        </mxCell>
        <mxCell id="0IOBR0UWIJ8B12urthg3-42" value="Lane 3" style="swimlane;html=1;startSize=20;" vertex="1" parent="0IOBR0UWIJ8B12urthg3-39">
          <mxGeometry x="80" y="20" width="40" height="260" as="geometry" />
        </mxCell>
        <mxCell id="0IOBR0UWIJ8B12urthg3-46" value="ocr-input" style="text;html=1;align=center;verticalAlign=middle;resizable=0;points=[];autosize=1;fontColor=#1D3557;horizontal=0;" vertex="1" parent="0IOBR0UWIJ8B12urthg3-42">
          <mxGeometry x="5" y="90" width="30" height="50" as="geometry" />
        </mxCell>
        <mxCell id="0IOBR0UWIJ8B12urthg3-47" value="处理引擎" style="swimlane;rounded=1;shadow=0;glass=0;dashed=1;sketch=0;strokeColor=#b85450;fillColor=#f8cecc;fontSize=18;fontFamily=Verdana;" vertex="1" parent="1">
          <mxGeometry x="-960" y="490" width="440" height="130" as="geometry" />
        </mxCell>
        <mxCell id="0IOBR0UWIJ8B12urthg3-48" value="&lt;h3&gt;&lt;font style=&quot;font-size: 18px&quot;&gt;face&lt;/font&gt;&lt;/h3&gt;" style="rounded=1;whiteSpace=wrap;html=1;shadow=0;glass=0;dashed=1;sketch=0;strokeColor=#457B9D;fillColor=#A8DADC;fontFamily=Verdana;fontSize=18;fontColor=#1D3557;" vertex="1" parent="0IOBR0UWIJ8B12urthg3-47">
          <mxGeometry x="20" y="50" width="120" height="60" as="geometry" />
        </mxCell>
        <mxCell id="0IOBR0UWIJ8B12urthg3-49" value="&lt;h3&gt;&lt;font style=&quot;font-size: 18px&quot;&gt;porn&lt;/font&gt;&lt;/h3&gt;" style="rounded=1;whiteSpace=wrap;html=1;shadow=0;glass=0;dashed=1;sketch=0;strokeColor=#457B9D;fillColor=#A8DADC;fontFamily=Verdana;fontSize=18;fontColor=#1D3557;" vertex="1" parent="0IOBR0UWIJ8B12urthg3-47">
          <mxGeometry x="160" y="50" width="120" height="60" as="geometry" />
        </mxCell>
        <mxCell id="0IOBR0UWIJ8B12urthg3-50" value="&lt;h3&gt;ocr&lt;/h3&gt;" style="rounded=1;whiteSpace=wrap;html=1;shadow=0;glass=0;dashed=1;sketch=0;strokeColor=#457B9D;fillColor=#A8DADC;fontFamily=Verdana;fontSize=18;fontColor=#1D3557;" vertex="1" parent="0IOBR0UWIJ8B12urthg3-47">
          <mxGeometry x="300" y="50" width="120" height="60" as="geometry" />
        </mxCell>
        <mxCell id="0IOBR0UWIJ8B12urthg3-51" style="edgeStyle=orthogonalEdgeStyle;curved=0;rounded=1;sketch=0;orthogonalLoop=1;jettySize=auto;html=1;exitX=0.5;exitY=1;exitDx=0;exitDy=0;entryX=0.5;entryY=0;entryDx=0;entryDy=0;strokeColor=#457B9D;fillColor=#A8DADC;fontFamily=Verdana;fontSize=18;fontColor=#1D3557;" edge="1" parent="1" source="0IOBR0UWIJ8B12urthg3-40" target="0IOBR0UWIJ8B12urthg3-48">
          <mxGeometry relative="1" as="geometry" />
        </mxCell>
        <mxCell id="0IOBR0UWIJ8B12urthg3-52" style="edgeStyle=orthogonalEdgeStyle;curved=0;rounded=1;sketch=0;orthogonalLoop=1;jettySize=auto;html=1;exitX=0.5;exitY=1;exitDx=0;exitDy=0;entryX=0.5;entryY=0;entryDx=0;entryDy=0;strokeColor=#457B9D;fillColor=#A8DADC;fontFamily=Verdana;fontSize=18;fontColor=#1D3557;" edge="1" parent="1" source="0IOBR0UWIJ8B12urthg3-41" target="0IOBR0UWIJ8B12urthg3-49">
          <mxGeometry relative="1" as="geometry" />
        </mxCell>
        <mxCell id="0IOBR0UWIJ8B12urthg3-53" style="edgeStyle=orthogonalEdgeStyle;curved=0;rounded=1;sketch=0;orthogonalLoop=1;jettySize=auto;html=1;exitX=0.5;exitY=1;exitDx=0;exitDy=0;strokeColor=#457B9D;fillColor=#A8DADC;fontFamily=Verdana;fontSize=18;fontColor=#1D3557;" edge="1" parent="1" source="0IOBR0UWIJ8B12urthg3-42" target="0IOBR0UWIJ8B12urthg3-50">
          <mxGeometry relative="1" as="geometry" />
        </mxCell>
      </root>
    </mxGraphModel>
  </diagram>
</mxfile>
